<svg id="Layer_1" data-name="Layer 1" xmlns="http://www.w3.org/2000/svg" viewBox="0 0 512 512"><defs><style>.cls-1{fill:#dde5e8;}.cls-2{fill:#40c168;}.cls-3{fill:#afc3c9;}.cls-4{fill:#ffb24d;}.cls-5{fill:#ce8945;}</style></defs><title>secure-payment-flat</title><path class="cls-1" d="M435.2,140.8V320a64.19,64.19,0,0,1-64,64H64A64.19,64.19,0,0,1,0,320V140.8A65.28,65.28,0,0,1,1.28,128,64.23,64.23,0,0,1,64,76.8H371.2A64.23,64.23,0,0,1,433.92,128,65.28,65.28,0,0,1,435.2,140.8Z"/><path class="cls-2" d="M435.2,140.8V192H0V140.8A65.28,65.28,0,0,1,1.28,128H433.92A65.28,65.28,0,0,1,435.2,140.8Z"/><path class="cls-3" d="M153.6,268.8H76.8a12.8,12.8,0,1,1,0-25.6h76.8a12.8,12.8,0,1,1,0,25.6Z"/><path class="cls-3" d="M217.6,320H76.8a12.8,12.8,0,1,1,0-25.6H217.6a12.8,12.8,0,0,1,0,25.6Z"/><path class="cls-4" d="M480,294.4h-6.4a51.2,51.2,0,0,0-102.4,0h-6.4a32,32,0,0,0-32,32v76.8a32,32,0,0,0,32,32H480a32,32,0,0,0,32-32V326.4A32,32,0,0,0,480,294.4Zm-83.2,0a25.6,25.6,0,0,1,51.2,0Z"/><path class="cls-5" d="M422.4,384a12.8,12.8,0,0,1-12.8-12.8V358.4a12.8,12.8,0,0,1,25.6,0v12.8A12.8,12.8,0,0,1,422.4,384Z"/></svg>