<svg id="Layer_1" data-name="Layer 1" xmlns="http://www.w3.org/2000/svg" viewBox="0 0 512 512"><title>database-search-magnifier-flat</title><path d="M0,256C0,114.61,114.61,0,256,0S512,114.63,512,256,397.38,512,256,512,0,397.39,0,256Z" fill="#ff5b9a"/><path d="M305.72,202.19H302a75.92,75.92,0,0,1,14.6,8.36A11.55,11.55,0,0,0,305.72,202.19Z" fill="#fff"/><path d="M144.83,261.84h51.89a76.11,76.11,0,0,1,45.15-59.65h-97a11.75,11.75,0,0,0-11.49,11.93v35.79A11.75,11.75,0,0,0,144.83,261.84Z" fill="#fff"/><path d="M144.83,190.26H305.72a11.75,11.75,0,0,0,11.49-11.93V142.54a11.75,11.75,0,0,0-11.49-11.93H144.83a11.75,11.75,0,0,0-11.49,11.93v35.79A11.75,11.75,0,0,0,144.83,190.26Z" fill="#fff"/><path d="M196.08,273.77H144.83a11.75,11.75,0,0,0-11.49,11.93v35.79a11.75,11.75,0,0,0,11.49,11.93h82.75A75.85,75.85,0,0,1,196.08,273.77Z" fill="#fff"/><path d="M271.95,207.7a64.18,64.18,0,1,0,64.18,64.18A64.26,64.26,0,0,0,271.95,207.7Zm0,107.77a43.59,43.59,0,1,1,43.59-43.59A43.64,43.64,0,0,1,271.95,315.47Z" fill="#fff"/><rect x="336.89" y="314.78" width="20.06" height="69.73" transform="translate(-145.62 347.63) rotate(-44.99)" fill="#fff"/></svg>